<svg id="Layer_1" data-name="Layer 1" xmlns="http://www.w3.org/2000/svg" viewBox="0 0 244.25 238.22"><defs><style>.cls-1{fill:#1b1817;}</style></defs><title>github-logo</title><path id="path16" class="cls-1" d="M125.47,6a122.14,122.14,0,0,0-38.6,238c6.11,1.12,8.34-2.65,8.34-5.89,0-2.9-.11-10.58-.17-20.77C61.08,224.73,53.91,201,53.91,201c-5.56-14.11-13.56-17.87-13.56-17.87-11.09-7.57.84-7.42.84-7.42,12.25.86,18.7,12.59,18.7,12.59,10.89,18.66,28.59,13.27,35.54,10.14,1.11-7.89,4.27-13.27,7.76-16.32C76.07,179,47.56,168.54,47.56,121.74A47.2,47.2,0,0,1,60.13,89c-1.26-3.09-5.45-15.5,1.2-32.32,0,0,10.25-3.28,33.58,12.51a115.78,115.78,0,0,1,61.15,0c23.31-15.79,33.55-12.51,33.55-12.51,6.66,16.82,2.47,29.23,1.22,32.32a47.14,47.14,0,0,1,12.55,32.77c0,46.92-28.56,57.24-55.76,60.26,4.38,3.77,8.29,11.23,8.29,22.62,0,16.32-.15,29.49-.15,33.5,0,3.27,2.2,7.07,8.39,5.88A122.15,122.15,0,0,0,125.47,6" transform="translate(-3.35 -6)"/></svg>