<?xml version="1.0" encoding="utf-8"?>
<!-- Generator: Adobe Illustrator 24.3.0, SVG Export Plug-In . SVG Version: 6.00 Build 0)  -->
<svg version="1.1" id="圖層_1" xmlns="http://www.w3.org/2000/svg" xmlns:xlink="http://www.w3.org/1999/xlink" x="0px" y="0px"
	 viewBox="0 0 1024 1024" style="enable-background:new 0 0 1024 1024;" xml:space="preserve">
<g>
	<path d="M187.84,503.05v18.09c0,20.31,4.13,35.22,12.38,44.74c8.25,9.52,20.63,14.28,37.13,14.28c32.37,0,48.55-19.99,48.55-59.98
		v-32.37h-82.82c-5.08,0-8.73,1.27-10.95,3.81C189.9,494.17,188.47,497.98,187.84,503.05z M389.67,485.92h-72.35v31.42
		c0.63,19.04,4.76,33,12.38,41.89c7.62,8.89,19.36,13.33,35.22,13.33c7.62,0,13.65-0.63,18.09-1.9c4.44-1.27,8.57-3.81,12.38-7.62
		c5.08-6.35,8.25-18.41,9.52-36.18v-25.7C404.9,492.9,399.82,487.82,389.67,485.92z M436.31,484.97v36.18
		c0,25.39-3.17,44.43-9.52,57.12c-12.06,20.94-31.1,31.42-57.12,31.42c-33,0-55.53-16.5-67.59-49.5
		c-9.52,38.08-33,57.12-70.45,57.12c-22.21,0-40.3-7.62-54.26-22.85c-12.69-13.96-19.67-34.59-20.94-61.88v-47.6
		c0-8.89,3.49-16.82,10.47-23.8c5.71-6.35,13.01-9.52,21.9-9.52h215.15c8.89,0,16.5,3.17,22.85,9.52
		C433.14,468.78,436.31,476.72,436.31,484.97z M668.61,312.65c-8.25,0-15.55,3.01-21.9,9.04c-6.35,6.03-9.52,12.85-9.52,20.47
		c0,8.89,3.17,16.5,9.52,22.85c6.35,6.35,13.65,9.52,21.9,9.52c6.98,0,13.49-3.33,19.52-10c6.03-6.66,9.04-14.12,9.04-22.37
		c0-6.98-3.01-13.65-9.04-19.99C682.09,315.83,675.59,312.65,668.61,312.65z M872.33,463.07l-165.65,79.97
		c-21.58,0-40.46-8.09-56.64-24.28c-16.18-16.18-24.28-35.07-24.28-56.64c0-11.42,2.38-22.21,7.14-32.37
		c4.76-10.15,11.27-18.72,19.52-25.7c-7.62,1.27-13.01,1.9-16.18,1.9c-17.14,0-31.58-6.03-43.32-18.09
		c-11.74-12.06-17.61-26.66-17.61-43.79c0-16.5,5.87-30.78,17.61-42.84c11.74-12.06,26.18-18.09,43.32-18.09
		c13.33,0,25.23,3.97,35.7,11.9c10.47,7.93,17.93,17.93,22.37,29.99c3.81-12.69,11.11-23.17,21.9-31.42
		c10.79-8.25,23.17-12.38,37.13-12.38c16.5,0,30.78,6.03,42.84,18.09c12.06,12.06,18.09,26.34,18.09,42.84v0.95
		c0-6.98-2.86-13.33-8.57-19.04c-5.71-5.71-12.06-8.57-19.04-8.57c-7.62,0-14.44,2.86-20.47,8.57c-6.03,5.71-9.04,12.06-9.04,19.04
		c0,8.25,2.86,15.39,8.57,21.42c5.71,6.03,12.69,9.04,20.94,9.04c6.35,0,12.38-2.86,18.09-8.57c5.71-5.71,8.89-12.38,9.52-19.99
		c-0.63,16.5-6.82,30.46-18.56,41.89c-11.74,11.42-25.86,17.14-42.36,17.14h-3.81L872.33,463.07z M512.48,53.71
		c-82.51,0-158.83,20.63-228.96,61.88c-70.13,41.25-125.82,96.95-167.08,167.08C75.19,352.8,54.56,429.12,54.56,511.62
		c0,75.53,17.29,145.97,51.88,211.35s81.87,119.48,141.85,162.32c59.98,42.84,126.46,69.34,199.45,79.49
		c-7.62-4.44-11.42-12.69-11.42-24.75c0-20.31,9.84-30.46,29.51-30.46h2.86l1.9,0.95c1.9,0,2.86-1.27,2.86-3.81
		c0-9.52-9.2-20.94-27.61-34.27c-4.44-3.17-6.66-6.03-6.66-8.57c0-6.98,3.81-10.47,11.42-10.47c4.44,0,11.11,4.13,19.99,12.38
		c20.31,17.14,30.46,38.08,30.46,62.83c0,22.21-7.93,35.54-23.8,39.98l35.22,0.95c13.96,0,24.75-0.32,32.37-0.95
		c-13.96-3.81-20.94-13.33-20.94-28.56c0-20.31,9.84-30.46,29.51-30.46h2.86l1.9,0.95c1.9,0,2.86-1.27,2.86-3.81
		c0-9.52-9.2-20.94-27.61-34.27c-3.81-2.54-5.71-5.39-5.71-8.57c0-6.98,3.49-10.47,10.47-10.47c6.98,0,17.14,7.62,30.46,22.85
		c13.33,14.6,19.99,32.05,19.99,52.36c0,17.77-5.39,30.15-16.18,37.13c74.26-10.15,141.69-36.49,202.3-79.02
		c60.61-42.52,108.37-96.63,143.28-162.32c34.91-65.69,52.36-136.61,52.36-212.77c0-82.51-20.63-158.83-61.88-228.96
		c-41.25-70.13-96.95-125.82-167.08-167.08C671.3,74.33,594.98,53.71,512.48,53.71z"/>
</g>
</svg>
