<svg id="Layer_1" data-name="Layer 1" xmlns="http://www.w3.org/2000/svg" viewBox="0 0 245.19 218.11"><title>maoken-logo</title><path id="_Compound_Path_" data-name="&lt;Compound Path&gt;" d="M246.66,16.72a.76.76,0,0,0-1-.68C226,22.59,194.3,42.18,185.12,49c-21,15.49-99.55,15.49-120.55,0C55.39,42.18,23.7,22.59,4,16a.75.75,0,0,0-1,.68c-5,61.69,16.12,94.9,12.6,121.42-2.3,17.34.14,35.07,8.84,50.25,14,24.51,52.42,45.72,100.37,45.72s86.32-21.21,100.36-45.72c8.7-15.18,11.14-32.91,8.84-50.25C230.53,111.62,251.71,78.41,246.66,16.72Zm-218,73.7c-3.85-14.12-9.27-33-9.32-47.19C34.6,48.79,55.08,64.74,59,67.84,45.52,75.05,34.9,83.35,28.7,90.42ZM187,169.67a31.54,31.54,0,0,1-23.58,30.48V136.9c0-4.9-.72-8.17-2.34-10.6s-4.64-5.06-10.7-5.06c-6.33,0-13.73,4-13.73,15.16v53a11.79,11.79,0,1,1-23.57,0V136.9c0-4.88-.76-8.16-2.44-10.63-1.57-2.3-4.69-5-10.71-5-6.33,0-13.72,4.1-13.72,15.66v63.25a31.54,31.54,0,0,1-23.58-30.48v-39.6c0-6.23,2.44-11,7.67-15,5.74-4.4,13.52-6.63,23.13-6.63,11.15,0,19.38,3.53,25.16,10.77l5.8,7.27,6.24-6.9A32.66,32.66,0,0,1,142.17,111c4.13-1.7,9.48-2.57,15.9-2.57,9.88,0,17.35,2.13,22.18,6.32,4.56,4,6.78,9.79,6.78,17.81Zm34-79.25c-6.2-7.07-16.82-15.37-30.29-22.58,3.91-3.1,24.39-19.05,39.61-24.61C230.26,57.42,224.84,76.3,221,90.42Z" transform="translate(-2.25 -16)"/></svg>