<?xml version="1.0" encoding="utf-8"?>
<!-- Generator: Adobe Illustrator 22.1.0, SVG Export Plug-In . SVG Version: 6.00 Build 0)  -->
<svg version="1.1" id="Layer_1" xmlns="http://www.w3.org/2000/svg" xmlns:xlink="http://www.w3.org/1999/xlink" x="0px" y="0px"
	 viewBox="0 0 500 1000" style="enable-background:new 0 0 500 1000; fill:white;" xml:space="preserve">
<path d="M125.5,258v-95h45v-39h-140v-23h140V85c0-30,15-45,45-45h74c30,0,45,15,45,45v78h45v95h45c30,0,45,15,45,45v612
	c0,30-15,45-45,45h-344c-30,0-45-15-45-45V303c0-30,15-45,45-45H125.5z M80.5,915h344V303h-344V915z M121.5,519l-25-195h31l16,125
	l26-63h23l27,63l16-125h31l-24,195h-29l-32-83l-30,83H121.5z M127.5,591l-24-24l24-24l24,24L127.5,591z M127.5,664l-24-24l24-24
	l24,24L127.5,664z M106.5,895V684h40v171L106.5,895z M170.5,258h164v-50h-45V85h-74v123h-45V258z M177.5,895V578h91v-40h40v40h91
	v277l-40,40H177.5z M217.5,709h51v-91h-51V709z M217.5,855h52V749h-52V855z M285.5,519V324h99l23,23v149l-23,23H285.5z M308.5,709
	h51v-91h-51V709z M309.5,855h50V749h-50V855z M315.5,489h62V354h-62V489z"/>
</svg>
